<svg width="25" height="25" viewBox="0 0 25 25" fill="none" xmlns="http://www.w3.org/2000/svg">
<g opacity="0.3">
<path d="M21.6489 21.5L15.6489 15.5M3.64893 10.5C3.64893 11.4193 3.82999 12.3295 4.18177 13.1788C4.53355 14.0281 5.04917 14.7997 5.69918 15.4497C6.34919 16.0998 7.12086 16.6154 7.97014 16.9672C8.81942 17.3189 9.72967 17.5 10.6489 17.5C11.5682 17.5 12.4784 17.3189 13.3277 16.9672C14.177 16.6154 14.9487 16.0998 15.5987 15.4497C16.2487 14.7997 16.7643 14.0281 17.1161 13.1788C17.4679 12.3295 17.6489 11.4193 17.6489 10.5C17.6489 9.58075 17.4679 8.6705 17.1161 7.82122C16.7643 6.97194 16.2487 6.20026 15.5987 5.55025C14.9487 4.90024 14.177 4.38463 13.3277 4.03284C12.4784 3.68106 11.5682 3.5 10.6489 3.5C9.72967 3.5 8.81942 3.68106 7.97014 4.03284C7.12086 4.38463 6.34919 4.90024 5.69918 5.55025C5.04917 6.20026 4.53355 6.97194 4.18177 7.82122C3.82999 8.6705 3.64893 9.58075 3.64893 10.5Z" stroke="#CBF947" stroke-width="2" stroke-linecap="round" stroke-linejoin="round"/>
</g>
</svg>
