<svg width="24" height="25" viewBox="0 0 24 25" fill="none" xmlns="http://www.w3.org/2000/svg">
<path fill-rule="evenodd" clip-rule="evenodd" d="M19.7771 4.93C20.0243 4.82599 20.2947 4.79012 20.5604 4.82612C20.8261 4.86212 21.0773 4.96867 21.2878 5.13469C21.4984 5.30071 21.6606 5.52012 21.7575 5.77009C21.8545 6.02005 21.8827 6.29144 21.8391 6.556L19.5711 20.313C19.3511 21.64 17.8951 22.401 16.6781 21.74C15.6601 21.187 14.1481 20.335 12.7881 19.446C12.1081 19.001 10.0251 17.576 10.2811 16.562C10.5011 15.695 14.0011 12.437 16.0011 10.5C16.7861 9.739 16.4281 9.3 15.5011 10C13.1991 11.738 9.50314 14.381 8.28114 15.125C7.20314 15.781 6.64114 15.893 5.96914 15.781C4.74314 15.577 3.60614 15.261 2.67814 14.876C1.42414 14.356 1.48514 12.632 2.67714 12.13L19.7771 4.93Z" fill="white"/>
</svg>
